<svg xmlns="http://www.w3.org/2000/svg" fill="none" viewBox="0 0 24 24"><path fill="#fff" d="M12 5.01c-.809 0-1.572.79-2.146 1.364l-7.13 7.132v8.177c0 .895.728 1.621 1.624 1.621h15.308c.894 0 1.62-.726 1.62-1.621v-8.177l-7.13-7.132c-.573-.575-1.337-1.365-2.146-1.365Zm4.948 12.065h-3.282v3.282h-3.332v-3.282H7.051v-3.33h3.283V10.46h3.332v3.284h3.282v3.33Z"/><path fill="#fff" d="m23.614 10.192-8.085-8.08c-1.887-1.887-5.17-1.887-7.061 0l-8.08 8.08a1.319 1.319 0 0 0 0 1.866c.496.497 1.365.497 1.862 0l8.082-8.084c.892-.89 2.444-.89 3.334 0l8.082 8.084a1.324 1.324 0 0 0 1.866 0 1.322 1.322 0 0 0 0-1.866Z"/></svg>