<svg xmlns="http://www.w3.org/2000/svg" fill="none" viewBox="0 0 24 24"><path fill="#fff" d="M12 0a4.695 4.695 0 0 0-4.69 4.69v2.43A4.695 4.695 0 0 0 12 11.81a4.695 4.695 0 0 0 4.69-4.69V4.69A4.695 4.695 0 0 0 12 0ZM22.342 17.921a11.895 11.895 0 0 0-6.759-5.342.187.187 0 0 0-.187.046c-1.329 1.31-2.98 2.332-3.393 2.58-.44-.282-2.296-1.492-3.4-2.58a.187.187 0 0 0-.187-.046 11.892 11.892 0 0 0-6.758 5.343.188.188 0 0 0 0 .19C3.79 21.743 7.752 24 12 24c4.247 0 8.21-2.256 10.342-5.889a.187.187 0 0 0 0-.19Zm-3.964 1.4c0 .103-.099.182-.202.182h-1.27c-.104 0-.216.089-.216.192v1.314c0 .103-.056.182-.16.182h-1.14c-.104 0-.201-.079-.201-.182v-1.314c0-.103-.071-.192-.175-.192H13.69a.185.185 0 0 1-.19-.183v-1.13c0-.104.086-.188.19-.188h1.325c.103 0 .174-.084.174-.188V16.5c0-.103.097-.185.2-.185h1.129c.103 0 .171.082.171.185v1.319c0 .104.1.184.204.184h1.283c.103 0 .202.088.202.191v1.127Z"/></svg>