<svg xmlns="http://www.w3.org/2000/svg" fill="none" viewBox="0 0 24 24"><path fill="#fff" d="M18.72 1.277h-7.369a1.76 1.76 0 0 0-1.244.516l-9.592 9.59a1.76 1.76 0 0 0 0 2.49l7.37 7.368a1.76 1.76 0 0 0 2.488 0l9.592-9.59c.33-.33.515-.779.515-1.246V3.037a1.76 1.76 0 0 0-1.76-1.76Zm-3.08 6.16a1.32 1.32 0 1 1 .001-2.64 1.32 1.32 0 0 1 0 2.64Z"/><path fill="#fff" d="M22.24 3.037v8.192c0 .405-.162.795-.45 1.082l-9.746 9.747.15.15a1.76 1.76 0 0 0 2.488 0l8.801-8.8c.331-.33.517-.778.517-1.245V4.797a1.76 1.76 0 0 0-1.76-1.76Z"/></svg>