<svg xmlns="http://www.w3.org/2000/svg" width="24" height="24" fill="none">
<g clip-path="url(#a)">
<path fill="#C7C7C8" fill-rule="evenodd" d="M9.405 2.897a4 4 0 0 1 5.02-.136l.17.136.376.32a2 2 0 0 0 .96.45l.178.022.493.04a4 4 0 0 1 3.648 3.468l.02.2.04.494a2 2 0 0 0 .36.996l.11.142.323.376a4 4 0 0 1 .136 5.02l-.136.17-.321.376a2 2 0 0 0-.45.96l-.022.178-.04.493a4 4 0 0 1-3.467 3.648l-.201.02-.493.04a2 2 0 0 0-.996.36l-.142.112-.377.32a4 4 0 0 1-5.02.137l-.17-.136-.375-.321a2 2 0 0 0-.96-.45l-.178-.021-.493-.04a4 4 0 0 1-3.648-3.468l-.021-.2-.04-.494a2 2 0 0 0-.36-.996l-.111-.142-.321-.377a4 4 0 0 1-.136-5.02l.136-.17.32-.375a2 2 0 0 0 .45-.96l.022-.178.04-.493A4 4 0 0 1 7.197 3.75l.2-.021.494-.04a2 2 0 0 0 .996-.36l.142-.111.376-.32v-.001ZM14.5 13a1.5 1.5 0 1 0 0 3 1.5 1.5 0 0 0 0-3Zm-.207-4.707-6 6a1 1 0 1 0 1.414 1.414l6-6a1 1 0 0 0-1.414-1.414ZM9.5 8a1.5 1.5 0 1 0 0 3 1.5 1.5 0 0 0 0-3Z" clip-rule="evenodd"/></g><defs><clipPath id="a"><path fill="#fff" d="M0 0h24v24H0z"/></clipPath></defs></svg>