<svg xmlns="http://www.w3.org/2000/svg" fill="none" viewBox="0 0 24 24"><path fill="#fff" d="m23.735 10.158-.276-.22c-.687-.55-1.349-1.18-1.78-1.871l-1.088-1.74c-.751-1.201-2.233-1.948-3.868-1.948-1.433 0-2.772.582-3.585 1.556l-.482.58V4.09a2.106 2.106 0 0 0 1.406-1.98c0-1.163-.946-2.109-2.11-2.109-1.163 0-2.109.946-2.109 2.11 0 .915.59 1.688 1.406 1.98v2.424l-.482-.579c-.813-.975-2.152-1.557-3.585-1.557-1.635 0-3.117.747-3.868 1.948l-1.087 1.74c-.432.691-1 1.32-1.687 1.87l-.276.221a.703.703 0 0 0 .439 1.253h3.243l1.012-3.035a.703.703 0 1 1 1.333.445l-.863 2.59h1.33L7.77 8.376a.703.703 0 1 1 1.333.445l-.862 2.59h3.008v1.34H4.348a2.106 2.106 0 0 0 1.98 1.406h4.921v1.406H9.14c-1.163 0-2.11.947-2.11 2.11 0 1.163.947 2.11 2.11 2.11h2.11v1.405h-.704a.703.703 0 1 0 0 1.407h.703v.703a.703.703 0 1 0 1.407 0v-.703h.703c1.163 0 2.11-.947 2.11-2.11 0-1.163-.947-2.11-2.11-2.11h-.703V16.97h3.515c1.163 0 2.11-.947 2.11-2.11 0-1.163-.947-2.11-2.11-2.11h-3.515v-1.34h3.009L14.8 8.82a.703.703 0 1 1 1.334-.444l1.012 3.035h1.33l-.863-2.59a.702.702 0 1 1 1.334-.445l1.011 3.035h3.338a.702.702 0 0 0 .438-1.253ZM11.25 18.376H9.14a.704.704 0 0 1 0-1.406h2.11v1.406Zm2.11 1.406a.704.704 0 0 1 0 1.406h-.703v-1.406h.703Zm2.812-5.625a.704.704 0 0 1 0 1.406h-3.515v-1.406h3.515Z"/></svg>