<svg xmlns="http://www.w3.org/2000/svg" width="108" height="109" fill="none"><g filter="url(#a)"><path fill="#fff" d="M84 46.847c0-16.503-13.438-29.893-30-29.893-16.563 0-30 13.39-30 29.893 0 16.504 13.438 29.894 30 29.894 16.563 0 30-13.39 30-29.894Z"/></g><path fill="url(#b)" d="M45 36.883v19.93c0 1.24 1.028 2.587 2 1.992l17-10.96c.842-.517.842-1.478 0-1.994l-17-10.96c-.972-.596-2 .75-2 1.992Z"/><defs><linearGradient id="b" x1="45" x2="64.336" y1="44.427" y2="44.427" gradientUnits="userSpaceOnUse"><stop stop-color="#8585DE"/><stop offset=".38" stop-color="#55B7FF"/><stop offset=".698" stop-color="#00E3E7"/><stop offset="1" stop-color="#40F1BD"/></linearGradient><filter id="a" width="108" height="107.787" x="0" y=".954" color-interpolation-filters="sRGB" filterUnits="userSpaceOnUse"><feFlood flood-opacity="0" result="BackgroundImageFix"/><feColorMatrix in="SourceAlpha" result="hardAlpha" values="0 0 0 0 0 0 0 0 0 0 0 0 0 0 0 0 0 0 127 0"/><feOffset dy="8"/><feGaussianBlur stdDeviation="12"/><feColorMatrix values="0 0 0 0 0.333333 0 0 0 0 0.717647 0 0 0 0 1 0 0 0 0.34 0"/><feBlend in2="BackgroundImageFix" result="effect1_dropShadow_126_10902"/><feBlend in="SourceGraphic" in2="effect1_dropShadow_126_10902" result="shape"/></filter></defs></svg>